<svg id="Layer_1" data-name="Layer 1" xmlns="http://www.w3.org/2000/svg" viewBox="0 0 205.49 160.15"><defs><style>.cls-1{fill:#fff;}.cls-2{fill:#231f20;}.cls-3{fill:#005eb8;}</style></defs><title>NHS Digital logo_WEB_LEFT</title><rect class="cls-1" x="4" y="3.97" width="197" height="74"/><path class="cls-2" d="M16,118.46H27.15c12.49,0,23.53,4.2,23.53,20.38s-11,20.37-23.53,20.37H16V118.46Zm8.17,34.33h4.55c6.83,0,13.43-5.08,13.43-14s-6.6-14-13.43-14H24.17v27.91Z" transform="translate(-16 -12.03)"/><path class="cls-2" d="M56.46,116.19h7.82v7.47H56.46v-7.47Zm0,13h7.82v30.07H56.46V129.15Z" transform="translate(-16 -12.03)"/><path class="cls-2" d="M99,129.15v27.15c0,8.17-3.27,15.88-15.88,15.88a26.43,26.43,0,0,1-10.39-2l0.64-6.66c2.39,1.28,6.31,2.63,8.76,2.63,8.64,0,9-6.48,9-11.68H91c-1.46,2.57-5,4.79-9.34,4.79-8.87,0-12.26-7.12-12.26-15.18,0-7.24,3.74-15.59,12.73-15.59,4,0,7.06,1.34,9.22,4.79h0.12v-4.09H99Zm-7.82,14.71c0-5.14-2-9.34-6.54-9.34-5.31,0-7,4.9-7,9.52,0,4.09,2.16,9.11,6.66,9.11C89.15,153.14,91.14,148.88,91.14,143.86Z" transform="translate(-16 -12.03)"/><path class="cls-2" d="M106,116.19h7.82v7.47H106v-7.47Zm0,13h7.82v30.07H106V129.15Z" transform="translate(-16 -12.03)"/><path class="cls-2" d="M124.65,134.87h-5.78v-5.72h5.78v-6l7.82-2.51v8.52h6.95v5.72h-6.95v14c0,2.57.7,5,3.68,5a7,7,0,0,0,3.56-.82l0.23,6.19a20.57,20.57,0,0,1-5.78.7c-6.13,0-9.52-3.79-9.52-9.75v-15.3Z" transform="translate(-16 -12.03)"/><path class="cls-2" d="M147.3,130.72a26.91,26.91,0,0,1,10.45-2.28c9.17,0,13,3.79,13,12.67V145c0,3,.06,5.31.12,7.53s0.18,4.38.35,6.71h-6.89a36.75,36.75,0,0,1-.35-4.5h-0.12a10.74,10.74,0,0,1-9.28,5.2c-5.31,0-10.51-3.21-10.51-8.93,0-4.5,2.16-7.12,5.14-8.58s6.83-1.75,10.1-1.75h4.32c0-4.85-2.16-6.48-6.77-6.48a15.73,15.73,0,0,0-9.28,3.27Zm9.17,23.47a6.64,6.64,0,0,0,5.49-2.69,10,10,0,0,0,1.63-6.19H160.2c-3.5,0-8.7.58-8.7,5.2C151.5,153.08,153.66,154.19,156.47,154.19Z" transform="translate(-16 -12.03)"/><path class="cls-2" d="M177.43,115.43h7.82v43.79h-7.82V115.43Z" transform="translate(-16 -12.03)"/><path class="cls-3" d="M213.79,21.83l-4.32,13.26a33.86,33.86,0,0,0-14.76-3c-7.09,0-12.85,1-12.85,6.39,0,9.44,26,5.92,26,26.15,0,18.41-17.17,23.19-32.7,23.19a75.11,75.11,0,0,1-20.71-3.44l4.22-13.55c3.54,2.3,10.64,3.82,16.49,3.82,5.57,0,14.29-1.05,14.29-7.92,0-10.69-26-6.68-26-25.47,0-17.18,15.16-22.33,29.83-22.33,8.25,0,16,.87,20.52,3M162.29,20l-13.91,66.6H130.45l5.95-28.53H115.2l-5.94,28.53H91.32L105.23,20h17.93l-5.27,25.48h21.19L144.36,20h17.93ZM98.62,20L84.43,86.61H62.17l-14-46.09H48L38.68,86.61H21.8L36.09,20H58.43L72.15,66.2h0.19L81.74,20H98.62Zm122.87-8H16V94.77H221.49V12Z" transform="translate(-16 -12.03)"/></svg>